SplineFontDB: 3.2
FontName: IBMPlexSansJP
FullName: IBM Plex Sans JP
FamilyName: IBM Plex Sans JP
Weight: Book
Copyright: Copyright 2018 IBM Corp. All rights reserved.
Version: 1.000
ItalicAngle: 0
UnderlinePosition: -125
UnderlineWidth: 60
Ascent: 880
Descent: 120
InvalidEm: 0
sfntRevision: 0x00010000
LayerCount: 2
Layer: 0 1 "+gMyXYgAA" 1
Layer: 1 1 "+Uk2XYgAA" 0
HasVMetrics: 1
XUID: [1021 1004 1376950171 15735839]
BaseHoriz: 4 'icfb' 'icft' 'ideo' 'romn'
BaseScript: 'DFLT' 2  -75 835 -120 0
BaseScript: 'cyrl' 3  -75 835 -120 0
BaseScript: 'grek' 3  -75 835 -120 0
BaseScript: 'hani' 2  -75 835 -120 0
BaseScript: 'kana' 2  -75 835 -120 0
BaseScript: 'latn' 3  -75 835 -120 0
BaseVert: 4 'icfb' 'icft' 'ideo' 'romn'
BaseScript: 'DFLT' 2  45 955 0 120
BaseScript: 'cyrl' 3  45 955 0 120
BaseScript: 'grek' 3  45 955 0 120
BaseScript: 'hani' 2  45 955 0 120
BaseScript: 'kana' 2  45 955 0 120
BaseScript: 'latn' 3  45 955 0 120
StyleMap: 0x0040
FSType: 0
OS2Version: 4
OS2_WeightWidthSlopeOnly: 1
OS2_UseTypoMetrics: 0
CreationTime: 1622177159
ModificationTime: 1629255896
PfmFamily: 17
TTFWeight: 400
TTFWidth: 5
LineGap: 0
VLineGap: 0
Panose: 2 11 5 3 5 2 3 0 2 3
OS2TypoAscent: 880
OS2TypoAOffset: 0
OS2TypoDescent: -120
OS2TypoDOffset: 0
OS2TypoLinegap: 500
OS2WinAscent: 1060
OS2WinAOffset: 0
OS2WinDescent: 440
OS2WinDOffset: 0
HheadAscent: 1060
HheadAOffset: 0
HheadDescent: -440
HheadDOffset: 0
OS2SubXSize: 650
OS2SubYSize: 600
OS2SubXOff: 0
OS2SubYOff: 75
OS2SupXSize: 650
OS2SupYSize: 600
OS2SupXOff: 0
OS2SupYOff: 350
OS2StrikeYSize: 60
OS2StrikeYPos: 323
OS2CapHeight: 733
OS2XHeight: 541
OS2Vendor: 'IBM '
OS2CodePages: 20020005.00000000
OS2UnicodeRanges: 800002ef.6ac7fcf8.00000012.00000000
Lookup: 1 0 0 "'aalt' Access All Alternates lookup 0" { "'aalt' Access All Alternates lookup 0 subtable"  } ['aalt' ('DFLT' <'dflt' > 'cyrl' <'dflt' > 'grek' <'dflt' > 'hani' <'dflt' > 'kana' <'dflt' > 'latn' <'dflt' > ) ]

StartChar: uni2500
Encoding: 9472 9472 0
Width: 500
Flags: W
LayerCount: 2
Fore
SplineSet
0 400 m 1,0,-1
 500 400 l 1,1,-1
 500 360 l 1,2,-1
 0 360 l 1,3,-1
 0 400 l 1,0,-1
EndSplineSet
Substitution2: "'vrt2' Vertical Rotation & Alternates lookup 19 subtable" uni2502
Substitution2: "'vert' Vertical Alternates lookup 18 subtable" uni2502
Substitution2: "'hwid' Half Widths lookup 9 subtable" uni2500.half
AlternateSubs2: "'aalt' Access All Alternates lookup 1 subtable" uni2500.half uni2502
EndChar

StartChar: uni2501
Encoding: 9473 9473 1
Width: 500
Flags: W
LayerCount: 2
Fore
SplineSet
0 320 m 1,0,-1
 0 440 l 1,1,-1
 500 440 l 1,2,-1
 500 320 l 1,3,-1
 0 320 l 1,0,-1
EndSplineSet
Substitution2: "'vrt2' Vertical Rotation & Alternates lookup 19 subtable" uni2503
Substitution2: "'vert' Vertical Alternates lookup 18 subtable" uni2503
Substitution2: "'hwid' Half Widths lookup 9 subtable" uni2501.half
AlternateSubs2: "'aalt' Access All Alternates lookup 1 subtable" uni2501.half uni2503
EndChar

StartChar: uni2502
Encoding: 9474 9474 2
Width: 500
Flags: W
LayerCount: 2
Fore
SplineSet
230 -120 m 1,0,-1
 230 880 l 1,1,-1
 270 880 l 1,2,-1
 270 -120 l 1,3,-1
 230 -120 l 1,0,-1
EndSplineSet
Substitution2: "'vrt2' Vertical Rotation & Alternates lookup 19 subtable" uni2500
Substitution2: "'vert' Vertical Alternates lookup 18 subtable" uni2500
Substitution2: "'hwid' Half Widths lookup 9 subtable" uni2502.half
AlternateSubs2: "'aalt' Access All Alternates lookup 1 subtable" uni2502.half uni2500
EndChar

StartChar: uni2503
Encoding: 9475 9475 3
Width: 500
Flags: W
LayerCount: 2
Fore
SplineSet
190 -120 m 1,0,-1
 190 880 l 1,1,-1
 310 880 l 1,2,-1
 310 -120 l 1,3,-1
 190 -120 l 1,0,-1
EndSplineSet
Substitution2: "'vrt2' Vertical Rotation & Alternates lookup 19 subtable" uni2501
Substitution2: "'vert' Vertical Alternates lookup 18 subtable" uni2501
Substitution2: "'hwid' Half Widths lookup 9 subtable" uni2503.half
AlternateSubs2: "'aalt' Access All Alternates lookup 1 subtable" uni2503.half uni2501
EndChar

StartChar: uni2504
Encoding: 9476 9476 4
Width: 500
Flags: W
LayerCount: 2
Fore
SplineSet
0 400 m 1,0,-1
 125 400 l 1,1,-1
 125 360 l 1,2,-1
 0 360 l 1,3,-1
 0 400 l 1,0,-1
167 400 m 1,4,-1
 292 400 l 1,5,-1
 292 360 l 1,6,-1
 167 360 l 1,7,-1
 167 400 l 1,4,-1
334 400 m 1,8,-1
 459 400 l 1,9,-1
 459 360 l 1,10,-1
 334 360 l 1,11,-1
 334 400 l 1,8,-1
EndSplineSet
Substitution2: "'vrt2' Vertical Rotation & Alternates lookup 19 subtable" uni2506
Substitution2: "'vert' Vertical Alternates lookup 18 subtable" uni2506
Substitution2: "'hwid' Half Widths lookup 9 subtable" uni2504.half
AlternateSubs2: "'aalt' Access All Alternates lookup 1 subtable" uni2504.half uni2506
EndChar

StartChar: uni2505
Encoding: 9477 9477 5
Width: 500
Flags: W
LayerCount: 2
Fore
SplineSet
0 320 m 1,0,-1
 0 440 l 1,1,-1
 125 440 l 1,2,-1
 125 320 l 1,3,-1
 0 320 l 1,0,-1
167 320 m 1,4,-1
 167 440 l 1,5,-1
 292 440 l 1,6,-1
 292 320 l 1,7,-1
 167 320 l 1,4,-1
334 320 m 1,8,-1
 334 440 l 1,9,-1
 459 440 l 1,10,-1
 459 320 l 1,11,-1
 334 320 l 1,8,-1
EndSplineSet
Substitution2: "'vrt2' Vertical Rotation & Alternates lookup 19 subtable" uni2507
Substitution2: "'vert' Vertical Alternates lookup 18 subtable" uni2507
Substitution2: "'hwid' Half Widths lookup 9 subtable" uni2505.half
AlternateSubs2: "'aalt' Access All Alternates lookup 1 subtable" uni2505.half uni2507
EndChar

StartChar: uni2506
Encoding: 9478 9478 6
Width: 500
Flags: W
LayerCount: 2
Fore
SplineSet
230 880 m 1,0,-1
 270 880 l 1,1,-1
 270 769 l 1,2,-1
 230 769 l 1,3,-1
 230 880 l 1,0,-1
230 713 m 1,4,-1
 270 713 l 1,5,-1
 270 602 l 1,6,-1
 230 602 l 1,7,-1
 230 713 l 1,4,-1
230 546 m 1,8,-1
 270 546 l 1,9,-1
 270 435 l 1,10,-1
 230 435 l 1,11,-1
 230 546 l 1,8,-1
230 380 m 1,12,-1
 270 380 l 1,13,-1
 270 269 l 1,14,-1
 230 269 l 1,15,-1
 230 380 l 1,12,-1
230 213 m 1,16,-1
 270 213 l 1,17,-1
 270 102 l 1,18,-1
 230 102 l 1,19,-1
 230 213 l 1,16,-1
230 46 m 1,20,-1
 270 46 l 1,21,-1
 270 -65 l 1,22,-1
 230 -65 l 1,23,-1
 230 46 l 1,20,-1
EndSplineSet
Substitution2: "'vrt2' Vertical Rotation & Alternates lookup 19 subtable" uni2504
Substitution2: "'vert' Vertical Alternates lookup 18 subtable" uni2504
Substitution2: "'hwid' Half Widths lookup 9 subtable" uni2506.half
AlternateSubs2: "'aalt' Access All Alternates lookup 1 subtable" uni2506.half uni2504
EndChar

StartChar: uni2507
Encoding: 9479 9479 7
Width: 500
Flags: W
LayerCount: 2
Fore
SplineSet
190 880 m 1,0,-1
 310 880 l 1,1,-1
 310 769 l 1,2,-1
 190 769 l 1,3,-1
 190 880 l 1,0,-1
190 713 m 1,4,-1
 310 713 l 1,5,-1
 310 602 l 1,6,-1
 190 602 l 1,7,-1
 190 713 l 1,4,-1
190 546 m 1,8,-1
 310 546 l 1,9,-1
 310 435 l 1,10,-1
 190 435 l 1,11,-1
 190 546 l 1,8,-1
190 380 m 1,12,-1
 310 380 l 1,13,-1
 310 269 l 1,14,-1
 190 269 l 1,15,-1
 190 380 l 1,12,-1
190 213 m 1,16,-1
 310 213 l 1,17,-1
 310 102 l 1,18,-1
 190 102 l 1,19,-1
 190 213 l 1,16,-1
190 46 m 1,20,-1
 310 46 l 1,21,-1
 310 -65 l 1,22,-1
 190 -65 l 1,23,-1
 190 46 l 1,20,-1
EndSplineSet
Substitution2: "'vrt2' Vertical Rotation & Alternates lookup 19 subtable" uni2505
Substitution2: "'vert' Vertical Alternates lookup 18 subtable" uni2505
Substitution2: "'hwid' Half Widths lookup 9 subtable" uni2507.half
AlternateSubs2: "'aalt' Access All Alternates lookup 1 subtable" uni2507.half uni2505
EndChar

StartChar: uni2508
Encoding: 9480 9480 8
Width: 500
Flags: W
LayerCount: 2
Fore
SplineSet
0 400 m 1,0,-1
 83 400 l 1,1,-1
 83 360 l 1,2,-1
 0 360 l 1,3,-1
 0 400 l 1,0,-1
166 400 m 1,4,-1
 250 400 l 1,5,-1
 250 360 l 1,6,-1
 166 360 l 1,7,-1
 166 400 l 1,4,-1
333 400 m 1,8,-1
 416 400 l 1,9,-1
 416 360 l 1,10,-1
 333 360 l 1,11,-1
 333 400 l 1,8,-1
EndSplineSet
Substitution2: "'vrt2' Vertical Rotation & Alternates lookup 19 subtable" uni250A
Substitution2: "'vert' Vertical Alternates lookup 18 subtable" uni250A
Substitution2: "'hwid' Half Widths lookup 9 subtable" uni2508.half
AlternateSubs2: "'aalt' Access All Alternates lookup 1 subtable" uni2508.half uni250A
EndChar

StartChar: uni2509
Encoding: 9481 9481 9
Width: 500
Flags: W
LayerCount: 2
Fore
SplineSet
0 440 m 1,0,-1
 83 440 l 1,1,-1
 83 320 l 1,2,-1
 0 320 l 1,3,-1
 0 440 l 1,0,-1
166 440 m 1,4,-1
 250 440 l 1,5,-1
 250 320 l 1,6,-1
 166 320 l 1,7,-1
 166 440 l 1,4,-1
333 440 m 1,8,-1
 416 440 l 1,9,-1
 416 320 l 1,10,-1
 333 320 l 1,11,-1
 333 440 l 1,8,-1
EndSplineSet
Substitution2: "'vrt2' Vertical Rotation & Alternates lookup 19 subtable" uni250B
Substitution2: "'vert' Vertical Alternates lookup 18 subtable" uni250B
Substitution2: "'hwid' Half Widths lookup 9 subtable" uni2509.half
AlternateSubs2: "'aalt' Access All Alternates lookup 1 subtable" uni2509.half uni250B
EndChar

StartChar: uni250A
Encoding: 9482 9482 10
Width: 500
Flags: W
LayerCount: 2
Fore
SplineSet
230 880 m 1,0,-1
 270 880 l 1,1,-1
 270 797 l 1,2,-1
 230 797 l 1,3,-1
 230 880 l 1,0,-1
230 713 m 1,4,-1
 270 713 l 1,5,-1
 270 630 l 1,6,-1
 230 630 l 1,7,-1
 230 713 l 1,4,-1
230 546 m 1,8,-1
 270 546 l 1,9,-1
 270 463 l 1,10,-1
 230 463 l 1,11,-1
 230 546 l 1,8,-1
230 380 m 1,12,-1
 270 380 l 1,13,-1
 270 297 l 1,14,-1
 230 297 l 1,15,-1
 230 380 l 1,12,-1
230 213 m 1,16,-1
 270 213 l 1,17,-1
 270 130 l 1,18,-1
 230 130 l 1,19,-1
 230 213 l 1,16,-1
230 46 m 1,20,-1
 270 46 l 1,21,-1
 270 -37 l 1,22,-1
 230 -37 l 1,23,-1
 230 46 l 1,20,-1
EndSplineSet
Substitution2: "'vrt2' Vertical Rotation & Alternates lookup 19 subtable" uni2508
Substitution2: "'vert' Vertical Alternates lookup 18 subtable" uni2508
Substitution2: "'hwid' Half Widths lookup 9 subtable" uni250A.half
AlternateSubs2: "'aalt' Access All Alternates lookup 1 subtable" uni250A.half uni2508
EndChar

StartChar: uni250B
Encoding: 9483 9483 11
Width: 500
Flags: W
LayerCount: 2
Fore
SplineSet
190 880 m 1,0,-1
 310 880 l 1,1,-1
 310 797 l 1,2,-1
 190 797 l 1,3,-1
 190 880 l 1,0,-1
190 713 m 1,4,-1
 310 713 l 1,5,-1
 310 630 l 1,6,-1
 190 630 l 1,7,-1
 190 713 l 1,4,-1
190 546 m 1,8,-1
 310 546 l 1,9,-1
 310 463 l 1,10,-1
 190 463 l 1,11,-1
 190 546 l 1,8,-1
190 380 m 1,12,-1
 310 380 l 1,13,-1
 310 297 l 1,14,-1
 190 297 l 1,15,-1
 190 380 l 1,12,-1
190 213 m 1,16,-1
 310 213 l 1,17,-1
 310 130 l 1,18,-1
 190 130 l 1,19,-1
 190 213 l 1,16,-1
190 46 m 1,20,-1
 310 46 l 1,21,-1
 310 -37 l 1,22,-1
 190 -37 l 1,23,-1
 190 46 l 1,20,-1
EndSplineSet
Substitution2: "'vrt2' Vertical Rotation & Alternates lookup 19 subtable" uni2509
Substitution2: "'vert' Vertical Alternates lookup 18 subtable" uni2509
Substitution2: "'hwid' Half Widths lookup 9 subtable" uni250B.half
AlternateSubs2: "'aalt' Access All Alternates lookup 1 subtable" uni250B.half uni2509
EndChar

StartChar: uni250C
Encoding: 9484 9484 12
Width: 500
Flags: W
LayerCount: 2
Fore
SplineSet
230 -120 m 1,0,-1
 230 400 l 1,1,-1
 500 400 l 1,2,-1
 500 360 l 1,3,-1
 270 360 l 1,4,-1
 270 -120 l 1,5,-1
 230 -120 l 1,0,-1
EndSplineSet
Substitution2: "'vrt2' Vertical Rotation & Alternates lookup 19 subtable" uni2510
Substitution2: "'vert' Vertical Alternates lookup 18 subtable" uni2510
Substitution2: "'hwid' Half Widths lookup 9 subtable" uni250C.half
AlternateSubs2: "'aalt' Access All Alternates lookup 1 subtable" uni250C.half uni2510
EndChar

StartChar: uni250D
Encoding: 9485 9485 13
Width: 500
Flags: W
LayerCount: 2
Fore
SplineSet
230 -120 m 1,0,-1
 230 440 l 1,1,-1
 500 440 l 1,2,-1
 500 320 l 1,3,-1
 270 320 l 1,4,-1
 270 -120 l 1,5,-1
 230 -120 l 1,0,-1
EndSplineSet
Substitution2: "'vrt2' Vertical Rotation & Alternates lookup 19 subtable" uni2512
Substitution2: "'vert' Vertical Alternates lookup 18 subtable" uni2512
Substitution2: "'hwid' Half Widths lookup 9 subtable" uni250D.half
AlternateSubs2: "'aalt' Access All Alternates lookup 1 subtable" uni250D.half uni2512
EndChar

StartChar: uni250E
Encoding: 9486 9486 14
Width: 500
Flags: W
LayerCount: 2
Fore
SplineSet
190 -120 m 1,0,-1
 190 400 l 1,1,-1
 500 400 l 1,2,-1
 500 360 l 1,3,-1
 310 360 l 1,4,-1
 310 -120 l 1,5,-1
 190 -120 l 1,0,-1
EndSplineSet
Substitution2: "'vrt2' Vertical Rotation & Alternates lookup 19 subtable" uni2511
Substitution2: "'vert' Vertical Alternates lookup 18 subtable" uni2511
Substitution2: "'hwid' Half Widths lookup 9 subtable" uni250E.half
AlternateSubs2: "'aalt' Access All Alternates lookup 1 subtable" uni250E.half uni2511
EndChar

StartChar: uni250F
Encoding: 9487 9487 15
Width: 500
Flags: W
LayerCount: 2
Fore
SplineSet
190 -120 m 1,0,-1
 190 440 l 1,1,-1
 500 440 l 1,2,-1
 500 320 l 1,3,-1
 310 320 l 1,4,-1
 310 -120 l 1,5,-1
 190 -120 l 1,0,-1
EndSplineSet
Substitution2: "'vrt2' Vertical Rotation & Alternates lookup 19 subtable" uni2513
Substitution2: "'vert' Vertical Alternates lookup 18 subtable" uni2513
Substitution2: "'hwid' Half Widths lookup 9 subtable" uni250F.half
AlternateSubs2: "'aalt' Access All Alternates lookup 1 subtable" uni250F.half uni2513
EndChar

StartChar: uni2510
Encoding: 9488 9488 16
Width: 500
Flags: W
LayerCount: 2
Fore
SplineSet
230 -120 m 1,0,-1
 230 360 l 1,1,-1
 0 360 l 1,2,-1
 0 400 l 1,3,-1
 270 400 l 1,4,-1
 270 -120 l 1,5,-1
 230 -120 l 1,0,-1
EndSplineSet
Substitution2: "'vrt2' Vertical Rotation & Alternates lookup 19 subtable" uni2518
Substitution2: "'vert' Vertical Alternates lookup 18 subtable" uni2518
Substitution2: "'hwid' Half Widths lookup 9 subtable" uni2510.half
AlternateSubs2: "'aalt' Access All Alternates lookup 1 subtable" uni2510.half uni2518
EndChar

StartChar: uni2511
Encoding: 9489 9489 17
Width: 500
Flags: W
LayerCount: 2
Fore
SplineSet
230 -120 m 1,0,-1
 230 320 l 1,1,-1
 0 320 l 1,2,-1
 0 440 l 1,3,-1
 270 440 l 1,4,-1
 270 -120 l 1,5,-1
 230 -120 l 1,0,-1
EndSplineSet
Substitution2: "'vrt2' Vertical Rotation & Alternates lookup 19 subtable" uni251A
Substitution2: "'vert' Vertical Alternates lookup 18 subtable" uni251A
Substitution2: "'hwid' Half Widths lookup 9 subtable" uni2511.half
AlternateSubs2: "'aalt' Access All Alternates lookup 1 subtable" uni2511.half uni251A
EndChar

StartChar: uni2512
Encoding: 9490 9490 18
Width: 500
Flags: W
LayerCount: 2
Fore
SplineSet
190 -120 m 1,0,-1
 190 360 l 1,1,-1
 0 360 l 1,2,-1
 0 400 l 1,3,-1
 310 400 l 1,4,-1
 310 -120 l 1,5,-1
 190 -120 l 1,0,-1
EndSplineSet
Substitution2: "'vrt2' Vertical Rotation & Alternates lookup 19 subtable" uni2519
Substitution2: "'vert' Vertical Alternates lookup 18 subtable" uni2519
Substitution2: "'hwid' Half Widths lookup 9 subtable" uni2512.half
AlternateSubs2: "'aalt' Access All Alternates lookup 1 subtable" uni2512.half uni2519
EndChar

StartChar: uni2513
Encoding: 9491 9491 19
Width: 500
Flags: W
LayerCount: 2
Fore
SplineSet
190 -120 m 1,0,-1
 190 320 l 1,1,-1
 0 320 l 1,2,-1
 0 440 l 1,3,-1
 310 440 l 1,4,-1
 310 -120 l 1,5,-1
 190 -120 l 1,0,-1
EndSplineSet
Substitution2: "'vrt2' Vertical Rotation & Alternates lookup 19 subtable" uni251B
Substitution2: "'vert' Vertical Alternates lookup 18 subtable" uni251B
Substitution2: "'hwid' Half Widths lookup 9 subtable" uni2513.half
AlternateSubs2: "'aalt' Access All Alternates lookup 1 subtable" uni2513.half uni251B
EndChar

StartChar: uni2514
Encoding: 9492 9492 20
Width: 500
Flags: W
LayerCount: 2
Fore
SplineSet
230 880 m 1,0,-1
 270 880 l 1,1,-1
 270 400 l 1,2,-1
 500 400 l 1,3,-1
 500 360 l 1,4,-1
 230 360 l 1,5,-1
 230 880 l 1,0,-1
EndSplineSet
Substitution2: "'vrt2' Vertical Rotation & Alternates lookup 19 subtable" uni250C
Substitution2: "'vert' Vertical Alternates lookup 18 subtable" uni250C
Substitution2: "'hwid' Half Widths lookup 9 subtable" uni2514.half
AlternateSubs2: "'aalt' Access All Alternates lookup 1 subtable" uni2514.half uni250C
EndChar

StartChar: uni2515
Encoding: 9493 9493 21
Width: 500
Flags: W
LayerCount: 2
Fore
SplineSet
230 880 m 1,0,-1
 270 880 l 1,1,-1
 270 440 l 1,2,-1
 500 440 l 1,3,-1
 500 320 l 1,4,-1
 230 320 l 1,5,-1
 230 880 l 1,0,-1
EndSplineSet
Substitution2: "'vrt2' Vertical Rotation & Alternates lookup 19 subtable" uni250E
Substitution2: "'vert' Vertical Alternates lookup 18 subtable" uni250E
Substitution2: "'hwid' Half Widths lookup 9 subtable" uni2515.half
AlternateSubs2: "'aalt' Access All Alternates lookup 1 subtable" uni2515.half uni250E
EndChar

StartChar: uni2516
Encoding: 9494 9494 22
Width: 500
Flags: W
LayerCount: 2
Fore
SplineSet
190 880 m 1,0,-1
 310 880 l 1,1,-1
 310 400 l 1,2,-1
 500 400 l 1,3,-1
 500 360 l 1,4,-1
 190 360 l 1,5,-1
 190 880 l 1,0,-1
EndSplineSet
Substitution2: "'vrt2' Vertical Rotation & Alternates lookup 19 subtable" uni250D
Substitution2: "'vert' Vertical Alternates lookup 18 subtable" uni250D
Substitution2: "'hwid' Half Widths lookup 9 subtable" uni2516.half
AlternateSubs2: "'aalt' Access All Alternates lookup 1 subtable" uni2516.half uni250D
EndChar

StartChar: uni2517
Encoding: 9495 9495 23
Width: 500
Flags: W
LayerCount: 2
Fore
SplineSet
190 880 m 1,0,-1
 310 880 l 1,1,-1
 310 440 l 1,2,-1
 500 440 l 1,3,-1
 500 320 l 1,4,-1
 190 320 l 1,5,-1
 190 880 l 1,0,-1
EndSplineSet
Substitution2: "'vrt2' Vertical Rotation & Alternates lookup 19 subtable" uni250F
Substitution2: "'vert' Vertical Alternates lookup 18 subtable" uni250F
Substitution2: "'hwid' Half Widths lookup 9 subtable" uni2517.half
AlternateSubs2: "'aalt' Access All Alternates lookup 1 subtable" uni2517.half uni250F
EndChar

StartChar: uni2518
Encoding: 9496 9496 24
Width: 500
Flags: W
LayerCount: 2
Fore
SplineSet
230 880 m 1,0,-1
 270 880 l 1,1,-1
 270 360 l 1,2,-1
 0 360 l 1,3,-1
 0 400 l 1,4,-1
 230 400 l 1,5,-1
 230 880 l 1,0,-1
EndSplineSet
Substitution2: "'vrt2' Vertical Rotation & Alternates lookup 19 subtable" uni2514
Substitution2: "'vert' Vertical Alternates lookup 18 subtable" uni2514
Substitution2: "'hwid' Half Widths lookup 9 subtable" uni2518.half
AlternateSubs2: "'aalt' Access All Alternates lookup 1 subtable" uni2518.half uni2514
EndChar

StartChar: uni2519
Encoding: 9497 9497 25
Width: 500
Flags: W
LayerCount: 2
Fore
SplineSet
230 880 m 1,0,-1
 270 880 l 1,1,-1
 270 320 l 1,2,-1
 0 320 l 1,3,-1
 0 440 l 1,4,-1
 230 440 l 1,5,-1
 230 880 l 1,0,-1
EndSplineSet
Substitution2: "'vrt2' Vertical Rotation & Alternates lookup 19 subtable" uni2516
Substitution2: "'vert' Vertical Alternates lookup 18 subtable" uni2516
Substitution2: "'hwid' Half Widths lookup 9 subtable" uni2519.half
AlternateSubs2: "'aalt' Access All Alternates lookup 1 subtable" uni2519.half uni2516
EndChar

StartChar: uni251A
Encoding: 9498 9498 26
Width: 500
Flags: W
LayerCount: 2
Fore
SplineSet
190 880 m 1,0,-1
 310 880 l 1,1,-1
 310 360 l 1,2,-1
 0 360 l 1,3,-1
 0 400 l 1,4,-1
 190 400 l 1,5,-1
 190 880 l 1,0,-1
EndSplineSet
Substitution2: "'vrt2' Vertical Rotation & Alternates lookup 19 subtable" uni2515
Substitution2: "'vert' Vertical Alternates lookup 18 subtable" uni2515
Substitution2: "'hwid' Half Widths lookup 9 subtable" uni251A.half
AlternateSubs2: "'aalt' Access All Alternates lookup 1 subtable" uni251A.half uni2515
EndChar

StartChar: uni251B
Encoding: 9499 9499 27
Width: 500
Flags: W
LayerCount: 2
Fore
SplineSet
190 880 m 1,0,-1
 310 880 l 1,1,-1
 310 320 l 1,2,-1
 0 320 l 1,3,-1
 0 440 l 1,4,-1
 190 440 l 1,5,-1
 190 880 l 1,0,-1
EndSplineSet
Substitution2: "'vrt2' Vertical Rotation & Alternates lookup 19 subtable" uni2517
Substitution2: "'vert' Vertical Alternates lookup 18 subtable" uni2517
Substitution2: "'hwid' Half Widths lookup 9 subtable" uni251B.half
AlternateSubs2: "'aalt' Access All Alternates lookup 1 subtable" uni251B.half uni2517
EndChar

StartChar: uni251C
Encoding: 9500 9500 28
Width: 500
Flags: W
LayerCount: 2
Fore
SplineSet
230 880 m 1,0,-1
 270 880 l 1,1,-1
 270 400 l 1,2,-1
 500 400 l 1,3,-1
 500 360 l 1,4,-1
 270 360 l 1,5,-1
 270 -120 l 1,6,-1
 230 -120 l 1,7,-1
 230 880 l 1,0,-1
EndSplineSet
Substitution2: "'vrt2' Vertical Rotation & Alternates lookup 19 subtable" uni252C
Substitution2: "'vert' Vertical Alternates lookup 18 subtable" uni252C
Substitution2: "'hwid' Half Widths lookup 9 subtable" uni251C.half
AlternateSubs2: "'aalt' Access All Alternates lookup 1 subtable" uni251C.half uni252C
EndChar

StartChar: uni251D
Encoding: 9501 9501 29
Width: 500
Flags: W
LayerCount: 2
Fore
SplineSet
230 880 m 1,0,-1
 270 880 l 1,1,-1
 270 440 l 1,2,-1
 500 440 l 1,3,-1
 500 320 l 1,4,-1
 270 320 l 1,5,-1
 270 -120 l 1,6,-1
 230 -120 l 1,7,-1
 230 880 l 1,0,-1
EndSplineSet
Substitution2: "'vrt2' Vertical Rotation & Alternates lookup 19 subtable" uni2530
Substitution2: "'vert' Vertical Alternates lookup 18 subtable" uni2530
Substitution2: "'hwid' Half Widths lookup 9 subtable" uni251D.half
AlternateSubs2: "'aalt' Access All Alternates lookup 1 subtable" uni251D.half uni2530
EndChar

StartChar: uni251E
Encoding: 9502 9502 30
Width: 500
Flags: W
LayerCount: 2
Fore
SplineSet
190 880 m 1,0,-1
 310 880 l 1,1,-1
 310 400 l 1,2,-1
 500 400 l 1,3,-1
 500 360 l 1,4,-1
 270 360 l 1,5,-1
 270 -120 l 1,6,-1
 230 -120 l 1,7,-1
 230 360 l 1,8,-1
 190 360 l 1,9,-1
 190 880 l 1,0,-1
EndSplineSet
Substitution2: "'vrt2' Vertical Rotation & Alternates lookup 19 subtable" uni252E
Substitution2: "'vert' Vertical Alternates lookup 18 subtable" uni252E
Substitution2: "'hwid' Half Widths lookup 9 subtable" uni251E.half
AlternateSubs2: "'aalt' Access All Alternates lookup 1 subtable" uni251E.half uni252E
EndChar

StartChar: uni251F
Encoding: 9503 9503 31
Width: 500
Flags: W
LayerCount: 2
Fore
SplineSet
230 880 m 1,0,-1
 270 880 l 1,1,-1
 270 400 l 1,2,-1
 500 400 l 1,3,-1
 500 360 l 1,4,-1
 310 360 l 1,5,-1
 310 -120 l 1,6,-1
 190 -120 l 1,7,-1
 190 400 l 1,8,-1
 230 400 l 1,9,-1
 230 880 l 1,0,-1
EndSplineSet
Substitution2: "'vrt2' Vertical Rotation & Alternates lookup 19 subtable" uni252D
Substitution2: "'vert' Vertical Alternates lookup 18 subtable" uni252D
Substitution2: "'hwid' Half Widths lookup 9 subtable" uni251F.half
AlternateSubs2: "'aalt' Access All Alternates lookup 1 subtable" uni251F.half uni252D
EndChar

StartChar: uni2520
Encoding: 9504 9504 32
Width: 500
Flags: W
LayerCount: 2
Fore
SplineSet
190 880 m 1,0,-1
 310 880 l 1,1,-1
 310 400 l 1,2,-1
 500 400 l 1,3,-1
 500 360 l 1,4,-1
 310 360 l 1,5,-1
 310 -120 l 1,6,-1
 190 -120 l 1,7,-1
 190 880 l 1,0,-1
EndSplineSet
Substitution2: "'vrt2' Vertical Rotation & Alternates lookup 19 subtable" uni252F
Substitution2: "'vert' Vertical Alternates lookup 18 subtable" uni252F
Substitution2: "'hwid' Half Widths lookup 9 subtable" uni2520.half
AlternateSubs2: "'aalt' Access All Alternates lookup 1 subtable" uni2520.half uni252F
EndChar

StartChar: uni2521
Encoding: 9505 9505 33
Width: 500
Flags: W
LayerCount: 2
Fore
SplineSet
190 880 m 1,0,-1
 310 880 l 1,1,-1
 310 440 l 1,2,-1
 500 440 l 1,3,-1
 500 320 l 1,4,-1
 270 320 l 1,5,-1
 270 -120 l 1,6,-1
 230 -120 l 1,7,-1
 230 320 l 1,8,-1
 190 320 l 1,9,-1
 190 880 l 1,0,-1
EndSplineSet
Substitution2: "'vrt2' Vertical Rotation & Alternates lookup 19 subtable" uni2532
Substitution2: "'vert' Vertical Alternates lookup 18 subtable" uni2532
Substitution2: "'hwid' Half Widths lookup 9 subtable" uni2521.half
AlternateSubs2: "'aalt' Access All Alternates lookup 1 subtable" uni2521.half uni2532
EndChar

StartChar: uni2522
Encoding: 9506 9506 34
Width: 500
Flags: W
LayerCount: 2
Fore
SplineSet
230 880 m 1,0,-1
 270 880 l 1,1,-1
 270 440 l 1,2,-1
 500 440 l 1,3,-1
 500 320 l 1,4,-1
 310 320 l 1,5,-1
 310 -120 l 1,6,-1
 190 -120 l 1,7,-1
 190 440 l 1,8,-1
 230 440 l 1,9,-1
 230 880 l 1,0,-1
EndSplineSet
Substitution2: "'vrt2' Vertical Rotation & Alternates lookup 19 subtable" uni2531
Substitution2: "'vert' Vertical Alternates lookup 18 subtable" uni2531
Substitution2: "'hwid' Half Widths lookup 9 subtable" uni2522.half
AlternateSubs2: "'aalt' Access All Alternates lookup 1 subtable" uni2522.half uni2531
EndChar

StartChar: uni2523
Encoding: 9507 9507 35
Width: 500
Flags: W
LayerCount: 2
Fore
SplineSet
190 880 m 1,0,-1
 310 880 l 1,1,-1
 310 440 l 1,2,-1
 500 440 l 1,3,-1
 500 320 l 1,4,-1
 310 320 l 1,5,-1
 310 -120 l 1,6,-1
 190 -120 l 1,7,-1
 190 880 l 1,0,-1
EndSplineSet
Substitution2: "'vrt2' Vertical Rotation & Alternates lookup 19 subtable" uni2533
Substitution2: "'vert' Vertical Alternates lookup 18 subtable" uni2533
Substitution2: "'hwid' Half Widths lookup 9 subtable" uni2523.half
AlternateSubs2: "'aalt' Access All Alternates lookup 1 subtable" uni2523.half uni2533
EndChar

StartChar: uni2524
Encoding: 9508 9508 36
Width: 500
Flags: W
LayerCount: 2
Fore
SplineSet
230 880 m 1,0,-1
 270 880 l 1,1,-1
 270 -120 l 1,2,-1
 230 -120 l 1,3,-1
 230 360 l 1,4,-1
 0 360 l 1,5,-1
 0 400 l 1,6,-1
 230 400 l 1,7,-1
 230 880 l 1,0,-1
EndSplineSet
Substitution2: "'vrt2' Vertical Rotation & Alternates lookup 19 subtable" uni2534
Substitution2: "'vert' Vertical Alternates lookup 18 subtable" uni2534
Substitution2: "'hwid' Half Widths lookup 9 subtable" uni2524.half
AlternateSubs2: "'aalt' Access All Alternates lookup 1 subtable" uni2524.half uni2534
EndChar

StartChar: uni2525
Encoding: 9509 9509 37
Width: 500
Flags: W
LayerCount: 2
Fore
SplineSet
230 880 m 1,0,-1
 270 880 l 1,1,-1
 270 -120 l 1,2,-1
 230 -120 l 1,3,-1
 230 320 l 1,4,-1
 0 320 l 1,5,-1
 0 440 l 1,6,-1
 230 440 l 1,7,-1
 230 880 l 1,0,-1
EndSplineSet
Substitution2: "'vrt2' Vertical Rotation & Alternates lookup 19 subtable" uni2538
Substitution2: "'vert' Vertical Alternates lookup 18 subtable" uni2538
Substitution2: "'hwid' Half Widths lookup 9 subtable" uni2525.half
AlternateSubs2: "'aalt' Access All Alternates lookup 1 subtable" uni2525.half uni2538
EndChar

StartChar: uni2526
Encoding: 9510 9510 38
Width: 500
Flags: W
LayerCount: 2
Fore
SplineSet
190 880 m 1,0,-1
 310 880 l 1,1,-1
 310 360 l 1,2,-1
 270 360 l 1,3,-1
 270 -120 l 1,4,-1
 230 -120 l 1,5,-1
 230 360 l 1,6,-1
 0 360 l 1,7,-1
 0 400 l 1,8,-1
 190 400 l 1,9,-1
 190 880 l 1,0,-1
EndSplineSet
Substitution2: "'vrt2' Vertical Rotation & Alternates lookup 19 subtable" uni2536
Substitution2: "'vert' Vertical Alternates lookup 18 subtable" uni2536
Substitution2: "'hwid' Half Widths lookup 9 subtable" uni2526.half
AlternateSubs2: "'aalt' Access All Alternates lookup 1 subtable" uni2526.half uni2536
EndChar

StartChar: uni2527
Encoding: 9511 9511 39
Width: 500
Flags: W
LayerCount: 2
Fore
SplineSet
230 880 m 1,0,-1
 270 880 l 1,1,-1
 270 400 l 1,2,-1
 310 400 l 1,3,-1
 310 -120 l 1,4,-1
 190 -120 l 1,5,-1
 190 360 l 1,6,-1
 0 360 l 1,7,-1
 0 400 l 1,8,-1
 230 400 l 1,9,-1
 230 880 l 1,0,-1
EndSplineSet
Substitution2: "'vrt2' Vertical Rotation & Alternates lookup 19 subtable" uni2535
Substitution2: "'vert' Vertical Alternates lookup 18 subtable" uni2535
Substitution2: "'hwid' Half Widths lookup 9 subtable" uni2527.half
AlternateSubs2: "'aalt' Access All Alternates lookup 1 subtable" uni2527.half uni2535
EndChar

StartChar: uni2528
Encoding: 9512 9512 40
Width: 500
Flags: W
LayerCount: 2
Fore
SplineSet
190 880 m 1,0,-1
 310 880 l 1,1,-1
 310 -120 l 1,2,-1
 190 -120 l 1,3,-1
 190 360 l 1,4,-1
 0 360 l 1,5,-1
 0 400 l 1,6,-1
 190 400 l 1,7,-1
 190 880 l 1,0,-1
EndSplineSet
Substitution2: "'vrt2' Vertical Rotation & Alternates lookup 19 subtable" uni2537
Substitution2: "'vert' Vertical Alternates lookup 18 subtable" uni2537
Substitution2: "'hwid' Half Widths lookup 9 subtable" uni2528.half
AlternateSubs2: "'aalt' Access All Alternates lookup 1 subtable" uni2528.half uni2537
EndChar

StartChar: uni2529
Encoding: 9513 9513 41
Width: 500
Flags: W
LayerCount: 2
Fore
SplineSet
190 880 m 1,0,-1
 310 880 l 1,1,-1
 310 320 l 1,2,-1
 270 320 l 1,3,-1
 270 -120 l 1,4,-1
 230 -120 l 1,5,-1
 230 320 l 1,6,-1
 0 320 l 1,7,-1
 0 440 l 1,8,-1
 190 440 l 1,9,-1
 190 880 l 1,0,-1
EndSplineSet
Substitution2: "'vrt2' Vertical Rotation & Alternates lookup 19 subtable" uni253A
Substitution2: "'vert' Vertical Alternates lookup 18 subtable" uni253A
Substitution2: "'hwid' Half Widths lookup 9 subtable" uni2529.half
AlternateSubs2: "'aalt' Access All Alternates lookup 1 subtable" uni2529.half uni253A
EndChar

StartChar: uni252A
Encoding: 9514 9514 42
Width: 500
Flags: W
LayerCount: 2
Fore
SplineSet
230 880 m 1,0,-1
 270 880 l 1,1,-1
 270 440 l 1,2,-1
 310 440 l 1,3,-1
 310 -120 l 1,4,-1
 190 -120 l 1,5,-1
 190 320 l 1,6,-1
 0 320 l 1,7,-1
 0 440 l 1,8,-1
 230 440 l 1,9,-1
 230 880 l 1,0,-1
EndSplineSet
Substitution2: "'vrt2' Vertical Rotation & Alternates lookup 19 subtable" uni2539
Substitution2: "'vert' Vertical Alternates lookup 18 subtable" uni2539
Substitution2: "'hwid' Half Widths lookup 9 subtable" uni252A.half
AlternateSubs2: "'aalt' Access All Alternates lookup 1 subtable" uni252A.half uni2539
EndChar

StartChar: uni252B
Encoding: 9515 9515 43
Width: 500
Flags: W
LayerCount: 2
Fore
SplineSet
190 880 m 1,0,-1
 310 880 l 1,1,-1
 310 -120 l 1,2,-1
 190 -120 l 1,3,-1
 190 320 l 1,4,-1
 0 320 l 1,5,-1
 0 440 l 1,6,-1
 190 440 l 1,7,-1
 190 880 l 1,0,-1
EndSplineSet
Substitution2: "'vrt2' Vertical Rotation & Alternates lookup 19 subtable" uni253B
Substitution2: "'vert' Vertical Alternates lookup 18 subtable" uni253B
Substitution2: "'hwid' Half Widths lookup 9 subtable" uni252B.half
AlternateSubs2: "'aalt' Access All Alternates lookup 1 subtable" uni252B.half uni253B
EndChar

StartChar: uni252C
Encoding: 9516 9516 44
Width: 500
Flags: W
LayerCount: 2
Fore
SplineSet
0 360 m 1,0,-1
 0 400 l 1,1,-1
 500 400 l 1,2,-1
 500 360 l 1,3,-1
 270 360 l 1,4,-1
 270 -120 l 1,5,-1
 230 -120 l 1,6,-1
 230 360 l 1,7,-1
 0 360 l 1,0,-1
EndSplineSet
Substitution2: "'vrt2' Vertical Rotation & Alternates lookup 19 subtable" uni2524
Substitution2: "'vert' Vertical Alternates lookup 18 subtable" uni2524
Substitution2: "'hwid' Half Widths lookup 9 subtable" uni252C.half
AlternateSubs2: "'aalt' Access All Alternates lookup 1 subtable" uni252C.half uni2524
EndChar

StartChar: uni252D
Encoding: 9517 9517 45
Width: 500
Flags: W
LayerCount: 2
Fore
SplineSet
0 320 m 1,0,-1
 0 440 l 1,1,-1
 270 440 l 1,2,-1
 270 400 l 1,3,-1
 500 400 l 1,4,-1
 500 360 l 1,5,-1
 270 360 l 1,6,-1
 270 -120 l 1,7,-1
 230 -120 l 1,8,-1
 230 320 l 1,9,-1
 0 320 l 1,0,-1
EndSplineSet
Substitution2: "'vrt2' Vertical Rotation & Alternates lookup 19 subtable" uni2526
Substitution2: "'vert' Vertical Alternates lookup 18 subtable" uni2526
Substitution2: "'hwid' Half Widths lookup 9 subtable" uni252D.half
AlternateSubs2: "'aalt' Access All Alternates lookup 1 subtable" uni252D.half uni2526
EndChar

StartChar: uni252E
Encoding: 9518 9518 46
Width: 500
Flags: W
LayerCount: 2
Fore
SplineSet
0 360 m 1,0,-1
 0 400 l 1,1,-1
 230 400 l 1,2,-1
 230 440 l 1,3,-1
 500 440 l 1,4,-1
 500 320 l 1,5,-1
 270 320 l 1,6,-1
 270 -120 l 1,7,-1
 230 -120 l 1,8,-1
 230 360 l 1,9,-1
 0 360 l 1,0,-1
EndSplineSet
Substitution2: "'vrt2' Vertical Rotation & Alternates lookup 19 subtable" uni2527
Substitution2: "'vert' Vertical Alternates lookup 18 subtable" uni2527
Substitution2: "'hwid' Half Widths lookup 9 subtable" uni252E.half
AlternateSubs2: "'aalt' Access All Alternates lookup 1 subtable" uni252E.half uni2527
EndChar

StartChar: uni252F
Encoding: 9519 9519 47
Width: 500
Flags: W
LayerCount: 2
Fore
SplineSet
0 320 m 1,0,-1
 0 440 l 1,1,-1
 500 440 l 1,2,-1
 500 320 l 1,3,-1
 270 320 l 1,4,-1
 270 -120 l 1,5,-1
 230 -120 l 1,6,-1
 230 320 l 1,7,-1
 0 320 l 1,0,-1
EndSplineSet
Substitution2: "'vrt2' Vertical Rotation & Alternates lookup 19 subtable" uni2528
Substitution2: "'vert' Vertical Alternates lookup 18 subtable" uni2528
Substitution2: "'hwid' Half Widths lookup 9 subtable" uni252F.half
AlternateSubs2: "'aalt' Access All Alternates lookup 1 subtable" uni252F.half uni2528
EndChar

StartChar: uni2530
Encoding: 9520 9520 48
Width: 500
Flags: W
LayerCount: 2
Fore
SplineSet
0 360 m 1,0,-1
 0 400 l 1,1,-1
 500 400 l 1,2,-1
 500 360 l 1,3,-1
 310 360 l 1,4,-1
 310 -120 l 1,5,-1
 190 -120 l 1,6,-1
 190 360 l 1,7,-1
 0 360 l 1,0,-1
EndSplineSet
Substitution2: "'vrt2' Vertical Rotation & Alternates lookup 19 subtable" uni2525
Substitution2: "'vert' Vertical Alternates lookup 18 subtable" uni2525
Substitution2: "'hwid' Half Widths lookup 9 subtable" uni2530.half
AlternateSubs2: "'aalt' Access All Alternates lookup 1 subtable" uni2530.half uni2525
EndChar

StartChar: uni2531
Encoding: 9521 9521 49
Width: 500
Flags: W
LayerCount: 2
Fore
SplineSet
0 320 m 1,0,-1
 0 440 l 1,1,-1
 310 440 l 1,2,-1
 310 400 l 1,3,-1
 500 400 l 1,4,-1
 500 360 l 1,5,-1
 310 360 l 1,6,-1
 310 -120 l 1,7,-1
 190 -120 l 1,8,-1
 190 320 l 1,9,-1
 0 320 l 1,0,-1
EndSplineSet
Substitution2: "'vrt2' Vertical Rotation & Alternates lookup 19 subtable" uni2529
Substitution2: "'vert' Vertical Alternates lookup 18 subtable" uni2529
Substitution2: "'hwid' Half Widths lookup 9 subtable" uni2531.half
AlternateSubs2: "'aalt' Access All Alternates lookup 1 subtable" uni2531.half uni2529
EndChar

StartChar: uni2532
Encoding: 9522 9522 50
Width: 500
Flags: W
LayerCount: 2
Fore
SplineSet
0 360 m 1,0,-1
 0 400 l 1,1,-1
 190 400 l 1,2,-1
 190 440 l 1,3,-1
 500 440 l 1,4,-1
 500 320 l 1,5,-1
 310 320 l 1,6,-1
 310 -120 l 1,7,-1
 190 -120 l 1,8,-1
 190 360 l 1,9,-1
 0 360 l 1,0,-1
EndSplineSet
Substitution2: "'vrt2' Vertical Rotation & Alternates lookup 19 subtable" uni252A
Substitution2: "'vert' Vertical Alternates lookup 18 subtable" uni252A
Substitution2: "'hwid' Half Widths lookup 9 subtable" uni2532.half
AlternateSubs2: "'aalt' Access All Alternates lookup 1 subtable" uni2532.half uni252A
EndChar

StartChar: uni2533
Encoding: 9523 9523 51
Width: 500
Flags: W
LayerCount: 2
Fore
SplineSet
0 320 m 1,0,-1
 0 440 l 1,1,-1
 500 440 l 1,2,-1
 500 320 l 1,3,-1
 310 320 l 1,4,-1
 310 -120 l 1,5,-1
 190 -120 l 1,6,-1
 190 320 l 1,7,-1
 0 320 l 1,0,-1
EndSplineSet
Substitution2: "'vrt2' Vertical Rotation & Alternates lookup 19 subtable" uni252B
Substitution2: "'vert' Vertical Alternates lookup 18 subtable" uni252B
Substitution2: "'hwid' Half Widths lookup 9 subtable" uni2533.half
AlternateSubs2: "'aalt' Access All Alternates lookup 1 subtable" uni2533.half uni252B
EndChar

StartChar: uni2534
Encoding: 9524 9524 52
Width: 500
Flags: W
LayerCount: 2
Fore
SplineSet
0 360 m 1,0,-1
 0 400 l 1,1,-1
 230 400 l 1,2,-1
 230 880 l 1,3,-1
 270 880 l 1,4,-1
 270 400 l 1,5,-1
 500 400 l 1,6,-1
 500 360 l 1,7,-1
 0 360 l 1,0,-1
EndSplineSet
Substitution2: "'vrt2' Vertical Rotation & Alternates lookup 19 subtable" uni251C
Substitution2: "'vert' Vertical Alternates lookup 18 subtable" uni251C
Substitution2: "'hwid' Half Widths lookup 9 subtable" uni2534.half
AlternateSubs2: "'aalt' Access All Alternates lookup 1 subtable" uni2534.half uni251C
EndChar

StartChar: uni2535
Encoding: 9525 9525 53
Width: 500
Flags: W
LayerCount: 2
Fore
SplineSet
0 320 m 1,0,-1
 0 440 l 1,1,-1
 230 440 l 1,2,-1
 230 880 l 1,3,-1
 270 880 l 1,4,-1
 270 400 l 1,5,-1
 500 400 l 1,6,-1
 500 360 l 1,7,-1
 270 360 l 1,8,-1
 270 320 l 1,9,-1
 0 320 l 1,0,-1
EndSplineSet
Substitution2: "'vrt2' Vertical Rotation & Alternates lookup 19 subtable" uni251E
Substitution2: "'vert' Vertical Alternates lookup 18 subtable" uni251E
Substitution2: "'hwid' Half Widths lookup 9 subtable" uni2535.half
AlternateSubs2: "'aalt' Access All Alternates lookup 1 subtable" uni2535.half uni251E
EndChar

StartChar: uni2536
Encoding: 9526 9526 54
Width: 500
Flags: W
LayerCount: 2
Fore
SplineSet
0 360 m 1,0,-1
 0 400 l 1,1,-1
 230 400 l 1,2,-1
 230 880 l 1,3,-1
 270 880 l 1,4,-1
 270 440 l 1,5,-1
 500 440 l 1,6,-1
 500 320 l 1,7,-1
 230 320 l 1,8,-1
 230 360 l 1,9,-1
 0 360 l 1,0,-1
EndSplineSet
Substitution2: "'vrt2' Vertical Rotation & Alternates lookup 19 subtable" uni251F
Substitution2: "'vert' Vertical Alternates lookup 18 subtable" uni251F
Substitution2: "'hwid' Half Widths lookup 9 subtable" uni2536.half
AlternateSubs2: "'aalt' Access All Alternates lookup 1 subtable" uni2536.half uni251F
EndChar

StartChar: uni2537
Encoding: 9527 9527 55
Width: 500
Flags: W
LayerCount: 2
Fore
SplineSet
0 320 m 1,0,-1
 0 440 l 1,1,-1
 230 440 l 1,2,-1
 230 880 l 1,3,-1
 270 880 l 1,4,-1
 270 440 l 1,5,-1
 500 440 l 1,6,-1
 500 320 l 1,7,-1
 0 320 l 1,0,-1
EndSplineSet
Substitution2: "'vrt2' Vertical Rotation & Alternates lookup 19 subtable" uni2520
Substitution2: "'vert' Vertical Alternates lookup 18 subtable" uni2520
Substitution2: "'hwid' Half Widths lookup 9 subtable" uni2537.half
AlternateSubs2: "'aalt' Access All Alternates lookup 1 subtable" uni2537.half uni2520
EndChar

StartChar: uni2538
Encoding: 9528 9528 56
Width: 500
Flags: W
LayerCount: 2
Fore
SplineSet
0 360 m 1,0,-1
 0 400 l 1,1,-1
 190 400 l 1,2,-1
 190 880 l 1,3,-1
 310 880 l 1,4,-1
 310 400 l 1,5,-1
 500 400 l 1,6,-1
 500 360 l 1,7,-1
 0 360 l 1,0,-1
EndSplineSet
Substitution2: "'vrt2' Vertical Rotation & Alternates lookup 19 subtable" uni251D
Substitution2: "'vert' Vertical Alternates lookup 18 subtable" uni251D
Substitution2: "'hwid' Half Widths lookup 9 subtable" uni2538.half
AlternateSubs2: "'aalt' Access All Alternates lookup 1 subtable" uni2538.half uni251D
EndChar

StartChar: uni2539
Encoding: 9529 9529 57
Width: 500
Flags: W
LayerCount: 2
Fore
SplineSet
0 320 m 1,0,-1
 0 440 l 1,1,-1
 190 440 l 1,2,-1
 190 880 l 1,3,-1
 310 880 l 1,4,-1
 310 400 l 1,5,-1
 500 400 l 1,6,-1
 500 360 l 1,7,-1
 310 360 l 1,8,-1
 310 320 l 1,9,-1
 0 320 l 1,0,-1
EndSplineSet
Substitution2: "'vrt2' Vertical Rotation & Alternates lookup 19 subtable" uni2521
Substitution2: "'vert' Vertical Alternates lookup 18 subtable" uni2521
Substitution2: "'hwid' Half Widths lookup 9 subtable" uni2539.half
AlternateSubs2: "'aalt' Access All Alternates lookup 1 subtable" uni2539.half uni2521
EndChar

StartChar: uni253A
Encoding: 9530 9530 58
Width: 500
Flags: W
LayerCount: 2
Fore
SplineSet
0 360 m 1,0,-1
 0 400 l 1,1,-1
 190 400 l 1,2,-1
 190 880 l 1,3,-1
 310 880 l 1,4,-1
 310 440 l 1,5,-1
 500 440 l 1,6,-1
 500 320 l 1,7,-1
 190 320 l 1,8,-1
 190 360 l 1,9,-1
 0 360 l 1,0,-1
EndSplineSet
Substitution2: "'vrt2' Vertical Rotation & Alternates lookup 19 subtable" uni2522
Substitution2: "'vert' Vertical Alternates lookup 18 subtable" uni2522
Substitution2: "'hwid' Half Widths lookup 9 subtable" uni253A.half
AlternateSubs2: "'aalt' Access All Alternates lookup 1 subtable" uni253A.half uni2522
EndChar

StartChar: uni253B
Encoding: 9531 9531 59
Width: 500
Flags: W
LayerCount: 2
Fore
SplineSet
0 320 m 1,0,-1
 0 440 l 1,1,-1
 190 440 l 1,2,-1
 190 880 l 1,3,-1
 310 880 l 1,4,-1
 310 440 l 1,5,-1
 500 440 l 1,6,-1
 500 320 l 1,7,-1
 0 320 l 1,0,-1
EndSplineSet
Substitution2: "'vrt2' Vertical Rotation & Alternates lookup 19 subtable" uni2523
Substitution2: "'vert' Vertical Alternates lookup 18 subtable" uni2523
Substitution2: "'hwid' Half Widths lookup 9 subtable" uni253B.half
AlternateSubs2: "'aalt' Access All Alternates lookup 1 subtable" uni253B.half uni2523
EndChar

StartChar: uni253C
Encoding: 9532 9532 60
Width: 500
Flags: W
LayerCount: 2
Fore
SplineSet
0 360 m 1,0,-1
 0 400 l 1,1,-1
 230 400 l 1,2,-1
 230 880 l 1,3,-1
 270 880 l 1,4,-1
 270 400 l 1,5,-1
 500 400 l 1,6,-1
 500 360 l 1,7,-1
 270 360 l 1,8,-1
 270 -120 l 1,9,-1
 230 -120 l 1,10,-1
 230 360 l 1,11,-1
 0 360 l 1,0,-1
EndSplineSet
Substitution2: "'hwid' Half Widths lookup 9 subtable" uni253C.half
AlternateSubs2: "'aalt' Access All Alternates lookup 1 subtable" uni253C.half
EndChar

StartChar: uni253D
Encoding: 9533 9533 61
Width: 500
Flags: W
LayerCount: 2
Fore
SplineSet
0 320 m 1,0,-1
 0 440 l 1,1,-1
 230 440 l 1,2,-1
 230 880 l 1,3,-1
 270 880 l 1,4,-1
 270 400 l 1,5,-1
 500 400 l 1,6,-1
 500 360 l 1,7,-1
 270 360 l 1,8,-1
 270 -120 l 1,9,-1
 230 -120 l 1,10,-1
 230 320 l 1,11,-1
 0 320 l 1,0,-1
EndSplineSet
Substitution2: "'vrt2' Vertical Rotation & Alternates lookup 19 subtable" uni2540
Substitution2: "'vert' Vertical Alternates lookup 18 subtable" uni2540
Substitution2: "'hwid' Half Widths lookup 9 subtable" uni253D.half
AlternateSubs2: "'aalt' Access All Alternates lookup 1 subtable" uni253D.half uni2540
EndChar

StartChar: uni253E
Encoding: 9534 9534 62
Width: 500
Flags: W
LayerCount: 2
Fore
SplineSet
0 360 m 1,0,-1
 0 400 l 1,1,-1
 230 400 l 1,2,-1
 230 880 l 1,3,-1
 270 880 l 1,4,-1
 270 440 l 1,5,-1
 500 440 l 1,6,-1
 500 320 l 1,7,-1
 270 320 l 1,8,-1
 270 -120 l 1,9,-1
 230 -120 l 1,10,-1
 230 360 l 1,11,-1
 0 360 l 1,0,-1
EndSplineSet
Substitution2: "'vrt2' Vertical Rotation & Alternates lookup 19 subtable" uni2541
Substitution2: "'vert' Vertical Alternates lookup 18 subtable" uni2541
Substitution2: "'hwid' Half Widths lookup 9 subtable" uni253E.half
AlternateSubs2: "'aalt' Access All Alternates lookup 1 subtable" uni253E.half uni2541
EndChar

StartChar: uni253F
Encoding: 9535 9535 63
Width: 500
Flags: W
LayerCount: 2
Fore
SplineSet
0 320 m 1,0,-1
 0 440 l 1,1,-1
 230 440 l 1,2,-1
 230 880 l 1,3,-1
 270 880 l 1,4,-1
 270 440 l 1,5,-1
 500 440 l 1,6,-1
 500 320 l 1,7,-1
 270 320 l 1,8,-1
 270 -120 l 1,9,-1
 230 -120 l 1,10,-1
 230 320 l 1,11,-1
 0 320 l 1,0,-1
EndSplineSet
Substitution2: "'vrt2' Vertical Rotation & Alternates lookup 19 subtable" uni2542
Substitution2: "'vert' Vertical Alternates lookup 18 subtable" uni2542
Substitution2: "'hwid' Half Widths lookup 9 subtable" uni253F.half
AlternateSubs2: "'aalt' Access All Alternates lookup 1 subtable" uni253F.half uni2542
EndChar

StartChar: uni2540
Encoding: 9536 9536 64
Width: 500
Flags: W
LayerCount: 2
Fore
SplineSet
0 360 m 1,0,-1
 0 400 l 1,1,-1
 190 400 l 1,2,-1
 190 880 l 1,3,-1
 310 880 l 1,4,-1
 310 400 l 1,5,-1
 500 400 l 1,6,-1
 500 360 l 1,7,-1
 270 360 l 1,8,-1
 270 -120 l 1,9,-1
 230 -120 l 1,10,-1
 230 360 l 1,11,-1
 0 360 l 1,0,-1
EndSplineSet
Substitution2: "'vrt2' Vertical Rotation & Alternates lookup 19 subtable" uni253E
Substitution2: "'vert' Vertical Alternates lookup 18 subtable" uni253E
Substitution2: "'hwid' Half Widths lookup 9 subtable" uni2540.half
AlternateSubs2: "'aalt' Access All Alternates lookup 1 subtable" uni2540.half uni253E
EndChar

StartChar: uni2541
Encoding: 9537 9537 65
Width: 500
Flags: W
LayerCount: 2
Fore
SplineSet
0 360 m 1,0,-1
 0 400 l 1,1,-1
 230 400 l 1,2,-1
 230 880 l 1,3,-1
 270 880 l 1,4,-1
 270 400 l 1,5,-1
 500 400 l 1,6,-1
 500 360 l 1,7,-1
 310 360 l 1,8,-1
 310 -120 l 1,9,-1
 190 -120 l 1,10,-1
 190 360 l 1,11,-1
 0 360 l 1,0,-1
EndSplineSet
Substitution2: "'vrt2' Vertical Rotation & Alternates lookup 19 subtable" uni253D
Substitution2: "'vert' Vertical Alternates lookup 18 subtable" uni253D
Substitution2: "'hwid' Half Widths lookup 9 subtable" uni2541.half
AlternateSubs2: "'aalt' Access All Alternates lookup 1 subtable" uni2541.half uni253D
EndChar

StartChar: uni2542
Encoding: 9538 9538 66
Width: 500
Flags: W
LayerCount: 2
Fore
SplineSet
0 360 m 1,0,-1
 0 400 l 1,1,-1
 190 400 l 1,2,-1
 190 880 l 1,3,-1
 310 880 l 1,4,-1
 310 400 l 1,5,-1
 500 400 l 1,6,-1
 500 360 l 1,7,-1
 310 360 l 1,8,-1
 310 -120 l 1,9,-1
 190 -120 l 1,10,-1
 190 360 l 1,11,-1
 0 360 l 1,0,-1
EndSplineSet
Substitution2: "'vrt2' Vertical Rotation & Alternates lookup 19 subtable" uni253F
Substitution2: "'vert' Vertical Alternates lookup 18 subtable" uni253F
Substitution2: "'hwid' Half Widths lookup 9 subtable" uni2542.half
AlternateSubs2: "'aalt' Access All Alternates lookup 1 subtable" uni2542.half uni253F
EndChar

StartChar: uni2543
Encoding: 9539 9539 67
Width: 500
Flags: W
LayerCount: 2
Fore
SplineSet
0 320 m 1,0,-1
 0 440 l 1,1,-1
 190 440 l 1,2,-1
 190 880 l 1,3,-1
 310 880 l 1,4,-1
 310 400 l 1,5,-1
 500 400 l 1,6,-1
 500 360 l 1,7,-1
 310 360 l 1,8,-1
 310 320 l 1,9,-1
 270 320 l 1,10,-1
 270 -120 l 1,11,-1
 230 -120 l 1,12,-1
 230 320 l 1,13,-1
 0 320 l 1,0,-1
EndSplineSet
Substitution2: "'vrt2' Vertical Rotation & Alternates lookup 19 subtable" uni2544
Substitution2: "'vert' Vertical Alternates lookup 18 subtable" uni2544
Substitution2: "'hwid' Half Widths lookup 9 subtable" uni2543.half
AlternateSubs2: "'aalt' Access All Alternates lookup 1 subtable" uni2543.half uni2544
EndChar

StartChar: uni2544
Encoding: 9540 9540 68
Width: 500
Flags: W
LayerCount: 2
Fore
SplineSet
0 360 m 1,0,-1
 0 400 l 1,1,-1
 190 400 l 1,2,-1
 190 880 l 1,3,-1
 310 880 l 1,4,-1
 310 440 l 1,5,-1
 500 440 l 1,6,-1
 500 320 l 1,7,-1
 270 320 l 1,8,-1
 270 -120 l 1,9,-1
 230 -120 l 1,10,-1
 230 320 l 1,11,-1
 190 320 l 1,12,-1
 190 360 l 1,13,-1
 0 360 l 1,0,-1
EndSplineSet
Substitution2: "'vrt2' Vertical Rotation & Alternates lookup 19 subtable" uni2546
Substitution2: "'vert' Vertical Alternates lookup 18 subtable" uni2546
Substitution2: "'hwid' Half Widths lookup 9 subtable" uni2544.half
AlternateSubs2: "'aalt' Access All Alternates lookup 1 subtable" uni2544.half uni2546
EndChar

StartChar: uni2545
Encoding: 9541 9541 69
Width: 500
Flags: W
LayerCount: 2
Fore
SplineSet
0 320 m 1,0,-1
 0 440 l 1,1,-1
 230 440 l 1,2,-1
 230 880 l 1,3,-1
 270 880 l 1,4,-1
 270 440 l 1,5,-1
 310 440 l 1,6,-1
 310 400 l 1,7,-1
 500 400 l 1,8,-1
 500 360 l 1,9,-1
 310 360 l 1,10,-1
 310 -120 l 1,11,-1
 190 -120 l 1,12,-1
 190 320 l 1,13,-1
 0 320 l 1,0,-1
EndSplineSet
Substitution2: "'vrt2' Vertical Rotation & Alternates lookup 19 subtable" uni2543
Substitution2: "'vert' Vertical Alternates lookup 18 subtable" uni2543
Substitution2: "'hwid' Half Widths lookup 9 subtable" uni2545.half
AlternateSubs2: "'aalt' Access All Alternates lookup 1 subtable" uni2545.half uni2543
EndChar

StartChar: uni2546
Encoding: 9542 9542 70
Width: 500
Flags: W
LayerCount: 2
Fore
SplineSet
0 360 m 1,0,-1
 0 400 l 1,1,-1
 190 400 l 1,2,-1
 190 440 l 1,3,-1
 230 440 l 1,4,-1
 230 880 l 1,5,-1
 270 880 l 1,6,-1
 270 440 l 1,7,-1
 500 440 l 1,8,-1
 500 320 l 1,9,-1
 310 320 l 1,10,-1
 310 -120 l 1,11,-1
 190 -120 l 1,12,-1
 190 360 l 1,13,-1
 0 360 l 1,0,-1
EndSplineSet
Substitution2: "'vrt2' Vertical Rotation & Alternates lookup 19 subtable" uni2545
Substitution2: "'vert' Vertical Alternates lookup 18 subtable" uni2545
Substitution2: "'hwid' Half Widths lookup 9 subtable" uni2546.half
AlternateSubs2: "'aalt' Access All Alternates lookup 1 subtable" uni2546.half uni2545
EndChar

StartChar: uni2547
Encoding: 9543 9543 71
Width: 500
Flags: W
LayerCount: 2
Fore
SplineSet
0 320 m 1,0,-1
 0 440 l 1,1,-1
 190 440 l 1,2,-1
 190 880 l 1,3,-1
 310 880 l 1,4,-1
 310 440 l 1,5,-1
 500 440 l 1,6,-1
 500 320 l 1,7,-1
 270 320 l 1,8,-1
 270 -120 l 1,9,-1
 230 -120 l 1,10,-1
 230 320 l 1,11,-1
 0 320 l 1,0,-1
EndSplineSet
Substitution2: "'vrt2' Vertical Rotation & Alternates lookup 19 subtable" uni254A
Substitution2: "'vert' Vertical Alternates lookup 18 subtable" uni254A
Substitution2: "'hwid' Half Widths lookup 9 subtable" uni2547.half
AlternateSubs2: "'aalt' Access All Alternates lookup 1 subtable" uni2547.half uni254A
EndChar

StartChar: uni2548
Encoding: 9544 9544 72
Width: 500
Flags: W
LayerCount: 2
Fore
SplineSet
0 320 m 1,0,-1
 0 440 l 1,1,-1
 230 440 l 1,2,-1
 230 880 l 1,3,-1
 270 880 l 1,4,-1
 270 440 l 1,5,-1
 500 440 l 1,6,-1
 500 320 l 1,7,-1
 310 320 l 1,8,-1
 310 -120 l 1,9,-1
 190 -120 l 1,10,-1
 190 320 l 1,11,-1
 0 320 l 1,0,-1
EndSplineSet
Substitution2: "'vrt2' Vertical Rotation & Alternates lookup 19 subtable" uni2549
Substitution2: "'vert' Vertical Alternates lookup 18 subtable" uni2549
Substitution2: "'hwid' Half Widths lookup 9 subtable" uni2548.half
AlternateSubs2: "'aalt' Access All Alternates lookup 1 subtable" uni2548.half uni2549
EndChar

StartChar: uni2549
Encoding: 9545 9545 73
Width: 500
Flags: W
LayerCount: 2
Fore
SplineSet
0 320 m 1,0,-1
 0 440 l 1,1,-1
 190 440 l 1,2,-1
 190 880 l 1,3,-1
 310 880 l 1,4,-1
 310 400 l 1,5,-1
 500 400 l 1,6,-1
 500 360 l 1,7,-1
 310 360 l 1,8,-1
 310 -120 l 1,9,-1
 190 -120 l 1,10,-1
 190 320 l 1,11,-1
 0 320 l 1,0,-1
EndSplineSet
Substitution2: "'vrt2' Vertical Rotation & Alternates lookup 19 subtable" uni2547
Substitution2: "'vert' Vertical Alternates lookup 18 subtable" uni2547
Substitution2: "'hwid' Half Widths lookup 9 subtable" uni2549.half
AlternateSubs2: "'aalt' Access All Alternates lookup 1 subtable" uni2549.half uni2547
EndChar

StartChar: uni254A
Encoding: 9546 9546 74
Width: 500
Flags: W
LayerCount: 2
Fore
SplineSet
0 360 m 1,0,-1
 0 400 l 1,1,-1
 190 400 l 1,2,-1
 190 880 l 1,3,-1
 310 880 l 1,4,-1
 310 440 l 1,5,-1
 500 440 l 1,6,-1
 500 320 l 1,7,-1
 310 320 l 1,8,-1
 310 -120 l 1,9,-1
 190 -120 l 1,10,-1
 190 360 l 1,11,-1
 0 360 l 1,0,-1
EndSplineSet
Substitution2: "'vrt2' Vertical Rotation & Alternates lookup 19 subtable" uni2548
Substitution2: "'vert' Vertical Alternates lookup 18 subtable" uni2548
Substitution2: "'hwid' Half Widths lookup 9 subtable" uni254A.half
AlternateSubs2: "'aalt' Access All Alternates lookup 1 subtable" uni254A.half uni2548
EndChar

StartChar: uni254B
Encoding: 9547 9547 75
Width: 500
Flags: W
LayerCount: 2
Fore
SplineSet
0 320 m 1,0,-1
 0 440 l 1,1,-1
 190 440 l 1,2,-1
 190 880 l 1,3,-1
 310 880 l 1,4,-1
 310 440 l 1,5,-1
 500 440 l 1,6,-1
 500 320 l 1,7,-1
 310 320 l 1,8,-1
 310 -120 l 1,9,-1
 190 -120 l 1,10,-1
 190 320 l 1,11,-1
 0 320 l 1,0,-1
EndSplineSet
Substitution2: "'hwid' Half Widths lookup 9 subtable" uni254B.half
AlternateSubs2: "'aalt' Access All Alternates lookup 1 subtable" uni254B.half
EndChar

StartChar: uni256D
Encoding: 9581 9581 76
Width: 500
Flags: W
LayerCount: 2
Fore
SplineSet
190 -120 m 5,0,-1
 190 290 l 21,1,2
 190 440 190 440 340 440 c 13,3,-1
 500 440 l 5,4,-1
 500 320 l 5,5,-1
 410.713867188 320 l 5,6,7
 312 319 312 319 310 220 c 13,8,-1
 310 -120 l 5,9,-1
 190 -120 l 5,0,-1
EndSplineSet
EndChar

StartChar: uni256E
Encoding: 9582 9582 77
Width: 500
Flags: W
LayerCount: 2
Fore
SplineSet
310 -120 m 1,0,-1
 310 290 l 17,1,2
 310 440 310 440 160 440 c 9,3,-1
 0 440 l 1,4,-1
 0 320 l 1,5,-1
 89.2861328125 320 l 1,6,7
 188 319 188 319 190 220 c 9,8,-1
 190 -120 l 1,9,-1
 310 -120 l 1,0,-1
EndSplineSet
EndChar

StartChar: uni2570
Encoding: 9584 9584 78
Width: 500
Flags: W
LayerCount: 2
Fore
SplineSet
190 880 m 1,0,-1
 190 470 l 17,1,2
 190 320 190 320 340 320 c 9,3,-1
 500 320 l 1,4,-1
 500 440 l 1,5,-1
 410.713867188 440 l 1,6,7
 312 441 312 441 310 540 c 9,8,-1
 310 880 l 1,9,-1
 190 880 l 1,0,-1
EndSplineSet
EndChar

StartChar: uni256F
Encoding: 9583 9583 79
Width: 500
Flags: W
LayerCount: 2
Fore
SplineSet
310 880 m 1,0,-1
 310 470 l 17,1,2
 310 320 310 320 160 320 c 9,3,-1
 0 320 l 1,4,-1
 0 440 l 1,5,-1
 89.2861328125 440 l 1,6,7
 188 441 188 441 190 540 c 9,8,-1
 190 880 l 1,9,-1
 310 880 l 1,0,-1
EndSplineSet
EndChar

StartChar: uni2550
Encoding: 9552 9552 80
Width: 500
Flags: W
LayerCount: 2
Fore
SplineSet
0 485 m 1,0,-1
 0 609 l 1,1,-1
 500 609 l 1,2,-1
 500 485 l 1,3,-1
 0 485 l 1,0,-1
0 141 m 1,4,-1
 0 265 l 1,5,-1
 500 265 l 1,6,-1
 500 141 l 1,7,-1
 0 141 l 1,4,-1
EndSplineSet
EndChar

StartChar: uni255E
Encoding: 9566 9566 81
Width: 500
Flags: W
LayerCount: 2
Fore
SplineSet
188 880 m 1,0,-1
 312 880 l 1,1,-1
 312 609 l 1,2,-1
 500 609 l 1,3,-1
 500 485 l 1,4,-1
 312 485 l 1,5,-1
 312 265 l 1,6,-1
 500 265 l 1,7,-1
 500 141 l 1,8,-1
 312 141 l 1,9,-1
 312 -120 l 1,10,-1
 188 -120 l 1,11,-1
 188 880 l 1,0,-1
EndSplineSet
EndChar

StartChar: uni256A
Encoding: 9578 9578 82
Width: 500
Flags: W
LayerCount: 2
Fore
SplineSet
188 880 m 1,0,-1
 312 880 l 1,1,-1
 312 609 l 1,2,-1
 500 609 l 1,3,-1
 500 485 l 1,4,-1
 312 485 l 1,5,-1
 312 265 l 1,6,-1
 500 265 l 1,7,-1
 500 141 l 1,8,-1
 312 141 l 1,9,-1
 312 -120 l 1,10,-1
 188 -120 l 1,11,-1
 188 141 l 1,12,-1
 0 141 l 1,13,-1
 0 265 l 1,14,-1
 188 265 l 1,15,-1
 188 485 l 1,16,-1
 0 485 l 1,17,-1
 0 609 l 1,18,-1
 188 609 l 1,19,-1
 188 880 l 1,0,-1
EndSplineSet
EndChar

StartChar: uni2561
Encoding: 9569 9569 83
Width: 1000
Flags: W
LayerCount: 2
Fore
SplineSet
438 880 m 1,0,-1
 562 880 l 1,1,-1
 562 -120 l 1,2,-1
 438 -120 l 1,3,-1
 438 141 l 1,4,-1
 0 141 l 1,5,-1
 0 265 l 1,6,-1
 438 265 l 1,7,-1
 438 485 l 1,8,-1
 0 485 l 1,9,-1
 0 609 l 1,10,-1
 438 609 l 1,11,-1
 438 880 l 1,0,-1
EndSplineSet
EndChar

StartChar: uni2571
Encoding: 9585 9585 84
Width: 500
Flags: W
LayerCount: 2
Fore
SplineSet
90 -60 m 1,0,-1
 52 -44 l 1,1,-1
 403 803 l 1,2,-1
 441 787 l 1,3,-1
 90 -60 l 1,0,-1
EndSplineSet
EndChar

StartChar: uni2572
Encoding: 9586 9586 85
Width: 500
Flags: W
LayerCount: 2
Fore
SplineSet
403 -60 m 1,0,-1
 52 787 l 1,1,-1
 90 803 l 1,2,-1
 441 -44 l 1,3,-1
 403 -60 l 1,0,-1
EndSplineSet
EndChar

StartChar: uni2573
Encoding: 9587 9587 86
Width: 500
Flags: W
LayerCount: 2
Fore
SplineSet
466 85 m 1,0,-1
 435 54 l 1,1,-1
 250 339 l 1,2,-1
 65 54 l 1,3,-1
 34 85 l 1,4,-1
 219 370 l 1,5,-1
 34 655 l 1,6,-1
 65 686 l 1,7,-1
 250 401 l 1,8,-1
 435 686 l 1,9,-1
 466 655 l 1,10,-1
 281 370 l 1,11,-1
 466 85 l 1,0,-1
EndSplineSet
EndChar
